<svg fill="none" height="17" viewBox="0 0 16 17" width="16" xmlns="http://www.w3.org/2000/svg"><rect fill="#e41913" height="14.6667" rx="7.33333" width="14.6667" x=".666656" y="1.16666"/><g fill="#fff"><path d="m6.57425 6.70948c.07401-.00891.1439-.01782.2138-.02604.18981-.02261.38031-.04454.57012-.06716.19119-.02261.38237-.04522.57356-.06783.20968-.02467.41937-.05003.62905-.0747.08155-.00959.16309-.01987.24463-.02809.01234-.00137.02673.00617.03838.01302.08428.05413.08291.05482.07812.15418-.01439.30425-.02878.60781-.03975.91206-.0048.12814-.00205.25628-.00205.38442 0 1.23482 0 2.47036.00068 3.70516 0 .0843.00959.1685.01713.2528.01508.1583.10827.2488.25765.2871.14391.037.28781.0754.4324.1111.02329.0054.03083.0143.03015.0376-.00137.0693-.00137.1385 0 .2084.00068.0226-.00686.0328-.03015.0301-.00549-.0007-.01165 0-.01782 0-.97511 0-1.9509 0-2.926 0-.04865 0-.04865 0-.04865-.05 0-.061.00068-.122-.00069-.1837-.00068-.0246.0048-.0363.03221-.0431.13979-.035.27889-.0727.418-.1104.02261-.0061.04385-.0157.06578-.0246.11923-.0473.18707-.1364.20146-.2618.01165-.1021.02056-.2056.02056-.309.00137-1.2561.00069-2.51215-.00068-3.76889 0-.08428-.0096-.16857-.01851-.25285-.01302-.12472-.07606-.22065-.1809-.28781-.12129-.07812-.24532-.15281-.36798-.22818-.05619-.03427-.11238-.06853-.16925-.10074-.01645-.0089-.02262-.02124-.02193-.04111.00137-.05482.00068-.11033.00068-.16994z"/><path d="m8.0498 4.05756c.33371.01439.59273.14047.76816.41731.17268.27273.15829.65441-.03769.91138-.19941.26176-.46803.37483-.79283.35358-.23299-.01507-.43376-.10621-.59342-.27958-.17885-.19392-.24875-.42485-.20969-.68524.0555-.37346.35907-.64482.71745-.70101.05208-.00822.10622-.01165.14802-.01644z"/></g></svg>