<svg fill="none" height="16" viewBox="0 0 16 16" width="16" xmlns="http://www.w3.org/2000/svg"><path d="m12.6667 2.66666h-1.3334v-.66667c0-.17681-.0702-.34638-.1952-.4714s-.2946-.19526-.4714-.19526-.3464.07024-.4714.19526c-.1251.12502-.1953.29459-.1953.4714v.66667h-4v-.66667c0-.17681-.07024-.34638-.19526-.4714s-.29459-.19526-.4714-.19526-.34638.07024-.47141.19526c-.12502.12502-.19526.29459-.19526.4714v.66667h-1.33333c-.53044 0-1.03914.21072-1.41422.58579-.37507.37507-.58578.88378-.58578 1.41421v8.00004c0 .5304.21071 1.0391.58578 1.4142.37508.375.88378.5858 1.41422.5858h9.33336c.5304 0 1.0391-.2108 1.4142-.5858.3751-.3751.5858-.8838.5858-1.4142v-8.00004c0-.53043-.2107-1.03914-.5858-1.41421s-.8838-.58579-1.4142-.58579zm.6666 10.00004c0 .1768-.0702.3463-.1952.4714-.125.125-.2946.1952-.4714.1952h-9.33336c-.17682 0-.34638-.0702-.47141-.1952-.12502-.1251-.19526-.2946-.19526-.4714v-4.6667h10.66663zm0-6.00004h-10.66663v-2c0-.17681.07024-.34638.19526-.4714.12503-.12503.29459-.19526.47141-.19526h1.33333v.66666c0 .17681.07024.34638.19526.47141.12503.12502.2946.19526.47141.19526s.34638-.07024.4714-.19526c.12502-.12503.19526-.2946.19526-.47141v-.66666h4v.66666c0 .17681.0702.34638.1953.47141.125.12502.2946.19526.4714.19526s.3464-.07024.4714-.19526c.125-.12503.1952-.2946.1952-.47141v-.66666h1.3334c.1768 0 .3464.07023.4714.19526.125.12502.1952.29459.1952.4714z" fill="#01c1d6"/></svg>