<svg fill="none" height="17" viewBox="0 0 16 17" width="16" xmlns="http://www.w3.org/2000/svg"><rect fill="#e41913" height="14.6667" rx="7.33333" width="14.6667" x=".666504" y="1.16675"/><g fill="#fff"><path d="m6.57447 6.70954c.074-.00891.1439-.01782.21379-.02604.18982-.02261.38031-.04454.57013-.06715.19118-.02262.38237-.04523.57355-.06784.20968-.02467.41937-.05003.62905-.0747.08155-.00959.16309-.01987.24464-.02809.01233-.00137.02672.00617.03837.01302.08429.05413.08292.05482.07812.15418-.01439.30425-.02878.60781-.03974.91206-.0048.12814-.00206.25628-.00206.38442 0 1.23482 0 2.4703.00068 3.7051 0 .0843.0096.1686.01714.2529.01507.1583.10826.2487.25765.2871.1439.037.2878.0754.43239.111.0233.0055.03083.0144.03015.0377-.00137.0692-.00137.1384 0 .2083.00068.0226-.00685.0329-.03015.0302-.00548-.0007-.01165 0-.01782 0-.9751 0-1.95089 0-2.926 0-.04865 0-.04865 0-.04865-.0501 0-.0609.00068-.1219-.00069-.1836-.00068-.0247.0048-.0363.03221-.0432.13979-.0349.2789-.0726.418-.1103.02261-.0062.04386-.0158.06578-.0247.11924-.0472.18708-.1363.20147-.2617.01165-.1021.02055-.2056.02055-.3091.00137-1.256.00069-2.51209-.00068-3.76883 0-.08428-.00959-.16857-.0185-.25285-.01302-.12472-.07607-.22065-.18091-.28781-.12129-.07811-.24532-.15281-.36797-.22818-.0562-.03427-.11239-.06853-.16926-.10074-.01645-.0089-.02261-.02124-.02193-.04111.00137-.05482.00069-.11032.00069-.16994z"/><path d="m8.0498 4.05762c.33371.01439.59273.14047.76816.41731.17268.27273.15829.65441-.03769.91138-.19941.26176-.46803.37483-.79283.35359-.23299-.01508-.43376-.10622-.59342-.27958-.17885-.19393-.24875-.42486-.20969-.68525.0555-.37346.35907-.64482.71745-.70101.05208-.00822.10622-.01165.14802-.01644z"/></g></svg>