<svg fill="none" height="18" viewBox="0 0 18 18" width="18" xmlns="http://www.w3.org/2000/svg"><g fill="#e41913" stroke="#e41913" stroke-width=".323276"><path d="m11.2944 8.13647-.0075.00929-.0083.01033c-.5571.69439-1.1556 1.44025-1.31338 2.53641h-3.30897-.1831l.02271.1816c.01715.1373.03284.2642.03284.4061v.4091.1617h.16164 4.25286.1616v-.1617-.4091c0-1.019.4906-1.64314 1.1145-2.41235l.0005-.00069.0024-.00295c.6564-.81839 1.4394-1.79461 1.4394-3.405 0-2.67456-2.1378-4.763914-4.8491-4.763914-2.71134 0-4.84914 2.089354-4.84914 4.763914 0 1.61254.785 2.5891 1.45096 3.40875.19367.23835.37428.46276.5326.69389l.04815.07029h.08521.99747.27228l-.13037-.23903c-.25507-.46767-.57944-.87275-.88929-1.25696l-.00008-.00009-.00014-.00018c-.63128-.78484-1.19124-1.48636-1.19124-2.67667 0-2.0123 1.61154-3.58837 3.67359-3.58837 2.062 0 3.6736 1.57607 3.6736 3.58837 0 1.19031-.56 1.89183-1.1912 2.67667l-.0002.00023z"/><path d="m6.68164 12.6943h-.16164v.1617.8096.1617h.16164 4.26136.1616v-.1617-.8096-.1617h-.1616z"/><path d="m11.1046 14.8411v-.1617h-.1616-4.26136-.16164v.1617.8352.5625c0 .5751.47294 1.048 1.048 1.048h2.4886c.5751 0 1.048-.4729 1.048-1.048v-.5625zm-1.1755.9798v.2903h-2.23355v-.2903z"/></g></svg>